<mxfile modified="2020-12-09T09:04:55.725Z" host="app.diagrams.net" agent="5.0 (Macintosh; Intel Mac OS X 10_15_7) AppleWebKit/537.36 (KHTML, like Gecko) Chrome/86.0.4240.198 Safari/537.36" etag="OYUEqRrqXM8NaQxdUa1J" version="13.11.0" type="github">
  <diagram id="C2fSY1v2SiZeoUbDoYyL" name="Page-1">
    <mxGraphModel dx="2467" dy="776" grid="1" gridSize="10" guides="1" tooltips="1" connect="1" arrows="1" fold="1" page="1" pageScale="1" pageWidth="1169" pageHeight="827" math="0" shadow="0">
      <root>
        <mxCell id="0" />
        <mxCell id="1" parent="0" />
        <mxCell id="3ne1QswCM8ZiEu4GHsYG-31" value="Company Goods Delivery Procedure" style="text;html=1;strokeColor=none;fillColor=none;align=center;verticalAlign=middle;whiteSpace=wrap;rounded=0;fontStyle=1;fontSize=20;fontColor=#4D4D4D;fontFamily=Comic Sans MS;" parent="1" vertex="1">
          <mxGeometry x="189.5" y="50" width="790" height="30" as="geometry" />
        </mxCell>
        <mxCell id="3ne1QswCM8ZiEu4GHsYG-32" value="" style="line;strokeWidth=2;html=1;fontSize=20;fontColor=#4D4D4D;fontFamily=Comic Sans MS;" parent="1" vertex="1">
          <mxGeometry x="103.5" y="80" width="960" height="10" as="geometry" />
        </mxCell>
        <mxCell id="reV63xKxs6cJYXb1UqvZ-15" value="updateChild" style="rounded=1;whiteSpace=wrap;html=1;strokeWidth=2;fillWeight=4;hachureGap=8;hachureAngle=45;fillColor=#f5f5f5;sketch=1;dashed=1;dashPattern=1 1;strokeColor=#666666;fontFamily=Comic Sans MS;fontColor=#333333;" vertex="1" parent="1">
          <mxGeometry x="103.5" y="384" width="120" height="60" as="geometry" />
        </mxCell>
        <mxCell id="reV63xKxs6cJYXb1UqvZ-37" value="" style="edgeStyle=orthogonalEdgeStyle;html=1;endArrow=block;elbow=vertical;startArrow=none;endFill=1;strokeColor=#545B64;rounded=0;shadow=0;fontFamily=Comic Sans MS;" edge="1" parent="1">
          <mxGeometry width="100" relative="1" as="geometry">
            <mxPoint x="3.5" y="413" as="sourcePoint" />
            <mxPoint x="103.5" y="413" as="targetPoint" />
          </mxGeometry>
        </mxCell>
        <mxCell id="reV63xKxs6cJYXb1UqvZ-57" value="" style="edgeStyle=orthogonalEdgeStyle;rounded=1;orthogonalLoop=1;jettySize=auto;html=1;shadow=0;endArrow=block;endFill=1;strokeColor=#545B64;fontFamily=Comic Sans MS;" edge="1" parent="1" source="reV63xKxs6cJYXb1UqvZ-47" target="reV63xKxs6cJYXb1UqvZ-56">
          <mxGeometry relative="1" as="geometry" />
        </mxCell>
        <mxCell id="reV63xKxs6cJYXb1UqvZ-47" value="inflateWidget" style="rounded=1;whiteSpace=wrap;html=1;strokeWidth=2;fillWeight=4;hachureGap=8;hachureAngle=45;fillColor=#f5f5f5;sketch=1;dashed=1;dashPattern=1 1;strokeColor=#666666;fontFamily=Comic Sans MS;fontColor=#333333;" vertex="1" parent="1">
          <mxGeometry x="310" y="280" width="120" height="60" as="geometry" />
        </mxCell>
        <mxCell id="reV63xKxs6cJYXb1UqvZ-81" value="" style="edgeStyle=orthogonalEdgeStyle;rounded=1;sketch=0;orthogonalLoop=1;jettySize=auto;html=1;shadow=0;endArrow=block;endFill=1;strokeColor=#97D077;fontFamily=Comic Sans MS;" edge="1" parent="1" source="reV63xKxs6cJYXb1UqvZ-48" target="reV63xKxs6cJYXb1UqvZ-80">
          <mxGeometry relative="1" as="geometry" />
        </mxCell>
        <mxCell id="reV63xKxs6cJYXb1UqvZ-82" value="ComponentElement" style="edgeLabel;html=1;align=center;verticalAlign=middle;resizable=0;points=[];fontFamily=Comic Sans MS;" vertex="1" connectable="0" parent="reV63xKxs6cJYXb1UqvZ-81">
          <mxGeometry x="0.0429" y="1" relative="1" as="geometry">
            <mxPoint as="offset" />
          </mxGeometry>
        </mxCell>
        <mxCell id="reV63xKxs6cJYXb1UqvZ-48" value="child.update" style="rounded=1;whiteSpace=wrap;html=1;strokeWidth=2;fillWeight=4;hachureGap=8;hachureAngle=45;fillColor=#dae8fc;sketch=1;dashed=1;dashPattern=1 1;strokeColor=#6c8ebf;fontFamily=Comic Sans MS;" vertex="1" parent="1">
          <mxGeometry x="310" y="460" width="120" height="60" as="geometry" />
        </mxCell>
        <mxCell id="reV63xKxs6cJYXb1UqvZ-52" value="" style="edgeStyle=orthogonalEdgeStyle;html=1;endArrow=block;elbow=vertical;startArrow=none;endFill=1;strokeColor=#545B64;rounded=1;shadow=0;entryX=-0.007;entryY=0.578;entryDx=0;entryDy=0;entryPerimeter=0;fontFamily=Comic Sans MS;" edge="1" parent="1" target="reV63xKxs6cJYXb1UqvZ-47">
          <mxGeometry width="100" relative="1" as="geometry">
            <mxPoint x="223.5" y="413" as="sourcePoint" />
            <mxPoint x="323.5" y="413" as="targetPoint" />
          </mxGeometry>
        </mxCell>
        <mxCell id="reV63xKxs6cJYXb1UqvZ-55" value="!canUpdate" style="edgeLabel;html=1;align=center;verticalAlign=middle;resizable=0;points=[];fontFamily=Comic Sans MS;" vertex="1" connectable="0" parent="reV63xKxs6cJYXb1UqvZ-52">
          <mxGeometry x="-0.0077" y="-3" relative="1" as="geometry">
            <mxPoint as="offset" />
          </mxGeometry>
        </mxCell>
        <mxCell id="reV63xKxs6cJYXb1UqvZ-53" value="" style="edgeStyle=orthogonalEdgeStyle;html=1;endArrow=block;elbow=vertical;startArrow=none;endFill=1;strokeColor=#545B64;rounded=1;shadow=0;entryX=0;entryY=0.5;entryDx=0;entryDy=0;exitX=1;exitY=0.5;exitDx=0;exitDy=0;fontFamily=Comic Sans MS;" edge="1" parent="1" source="reV63xKxs6cJYXb1UqvZ-15" target="reV63xKxs6cJYXb1UqvZ-48">
          <mxGeometry width="100" relative="1" as="geometry">
            <mxPoint x="233.5" y="423" as="sourcePoint" />
            <mxPoint x="319.15999999999985" y="324.68000000000006" as="targetPoint" />
          </mxGeometry>
        </mxCell>
        <mxCell id="reV63xKxs6cJYXb1UqvZ-54" value="canUpdate" style="edgeLabel;html=1;align=center;verticalAlign=middle;resizable=0;points=[];fontFamily=Comic Sans MS;" vertex="1" connectable="0" parent="reV63xKxs6cJYXb1UqvZ-53">
          <mxGeometry x="0.1597" y="1" relative="1" as="geometry">
            <mxPoint as="offset" />
          </mxGeometry>
        </mxCell>
        <mxCell id="reV63xKxs6cJYXb1UqvZ-59" value="" style="edgeStyle=orthogonalEdgeStyle;rounded=1;orthogonalLoop=1;jettySize=auto;html=1;shadow=0;endArrow=block;endFill=1;strokeColor=#545B64;fontFamily=Comic Sans MS;entryX=0;entryY=0.5;entryDx=0;entryDy=0;" edge="1" parent="1" source="reV63xKxs6cJYXb1UqvZ-56" target="reV63xKxs6cJYXb1UqvZ-58">
          <mxGeometry relative="1" as="geometry" />
        </mxCell>
        <mxCell id="reV63xKxs6cJYXb1UqvZ-60" value="RenderObjectElement&lt;br&gt;" style="edgeLabel;html=1;align=center;verticalAlign=middle;resizable=0;points=[];fontFamily=Comic Sans MS;" vertex="1" connectable="0" parent="reV63xKxs6cJYXb1UqvZ-59">
          <mxGeometry x="0.1179" y="1" relative="1" as="geometry">
            <mxPoint as="offset" />
          </mxGeometry>
        </mxCell>
        <mxCell id="reV63xKxs6cJYXb1UqvZ-56" value="newChild.mount" style="whiteSpace=wrap;html=1;rounded=1;dashed=1;dashPattern=1 1;fontFamily=Comic Sans MS;strokeColor=#82b366;strokeWidth=2;fillColor=#d5e8d4;sketch=1;fillWeight=4;hachureGap=8;hachureAngle=45;" vertex="1" parent="1">
          <mxGeometry x="510" y="280" width="120" height="60" as="geometry" />
        </mxCell>
        <mxCell id="reV63xKxs6cJYXb1UqvZ-64" value="" style="edgeStyle=orthogonalEdgeStyle;rounded=1;orthogonalLoop=1;jettySize=auto;html=1;shadow=0;endArrow=block;endFill=1;strokeColor=#545B64;fontFamily=Comic Sans MS;" edge="1" parent="1" source="reV63xKxs6cJYXb1UqvZ-58" target="reV63xKxs6cJYXb1UqvZ-63">
          <mxGeometry relative="1" as="geometry" />
        </mxCell>
        <mxCell id="reV63xKxs6cJYXb1UqvZ-58" value="widget.createRenderObject" style="whiteSpace=wrap;html=1;rounded=1;dashed=1;dashPattern=1 1;fontFamily=Comic Sans MS;strokeColor=#d79b00;strokeWidth=2;fillColor=#ffe6cc;sketch=1;fillWeight=4;hachureGap=8;hachureAngle=45;" vertex="1" parent="1">
          <mxGeometry x="770" y="170" width="180" height="60" as="geometry" />
        </mxCell>
        <mxCell id="reV63xKxs6cJYXb1UqvZ-66" value="" style="edgeStyle=orthogonalEdgeStyle;rounded=1;orthogonalLoop=1;jettySize=auto;html=1;shadow=0;endArrow=block;endFill=1;strokeColor=#545B64;fontFamily=Comic Sans MS;entryX=0;entryY=0.5;entryDx=0;entryDy=0;" edge="1" parent="1" source="reV63xKxs6cJYXb1UqvZ-63" target="reV63xKxs6cJYXb1UqvZ-65">
          <mxGeometry relative="1" as="geometry" />
        </mxCell>
        <mxCell id="reV63xKxs6cJYXb1UqvZ-67" value="SingleChildRenderObjectElement" style="edgeLabel;html=1;align=center;verticalAlign=middle;resizable=0;points=[];fontFamily=Comic Sans MS;" vertex="1" connectable="0" parent="reV63xKxs6cJYXb1UqvZ-66">
          <mxGeometry x="0.0222" y="1" relative="1" as="geometry">
            <mxPoint as="offset" />
          </mxGeometry>
        </mxCell>
        <mxCell id="reV63xKxs6cJYXb1UqvZ-71" value="&lt;span style=&quot;font-size: 11px&quot;&gt;MultiChildRenderObjectElement&lt;br&gt;&lt;/span&gt;" style="edgeStyle=orthogonalEdgeStyle;rounded=1;orthogonalLoop=1;jettySize=auto;html=1;shadow=0;endArrow=block;endFill=1;strokeColor=#545B64;fontFamily=Comic Sans MS;entryX=0;entryY=0.5;entryDx=0;entryDy=0;" edge="1" parent="1" source="reV63xKxs6cJYXb1UqvZ-63" target="reV63xKxs6cJYXb1UqvZ-70">
          <mxGeometry relative="1" as="geometry" />
        </mxCell>
        <mxCell id="reV63xKxs6cJYXb1UqvZ-63" value="attachRenderObject" style="whiteSpace=wrap;html=1;rounded=1;dashed=1;dashPattern=1 1;fontFamily=Comic Sans MS;strokeColor=#d79b00;strokeWidth=2;fillColor=#ffe6cc;sketch=1;fillWeight=4;hachureGap=8;hachureAngle=45;" vertex="1" parent="1">
          <mxGeometry x="1040" y="170" width="140" height="60" as="geometry" />
        </mxCell>
        <mxCell id="reV63xKxs6cJYXb1UqvZ-77" value="" style="edgeStyle=orthogonalEdgeStyle;rounded=1;orthogonalLoop=1;jettySize=auto;html=1;shadow=0;dashed=1;endArrow=block;endFill=1;fontFamily=Comic Sans MS;strokeColor=#97D077;" edge="1" parent="1" source="reV63xKxs6cJYXb1UqvZ-65">
          <mxGeometry relative="1" as="geometry">
            <mxPoint x="1565" y="120" as="targetPoint" />
          </mxGeometry>
        </mxCell>
        <mxCell id="reV63xKxs6cJYXb1UqvZ-65" value="updateChild" style="whiteSpace=wrap;html=1;rounded=1;dashed=1;dashPattern=1 1;fontFamily=Comic Sans MS;strokeColor=#b85450;strokeWidth=2;fillColor=#f8cecc;sketch=1;fillWeight=4;hachureGap=8;hachureAngle=45;" vertex="1" parent="1">
          <mxGeometry x="1320" y="90" width="130" height="60" as="geometry" />
        </mxCell>
        <mxCell id="reV63xKxs6cJYXb1UqvZ-79" value="" style="edgeStyle=orthogonalEdgeStyle;rounded=1;sketch=0;orthogonalLoop=1;jettySize=auto;html=1;shadow=0;dashed=1;endArrow=block;endFill=1;fontFamily=Comic Sans MS;strokeColor=#97D077;" edge="1" parent="1" source="reV63xKxs6cJYXb1UqvZ-70">
          <mxGeometry relative="1" as="geometry">
            <mxPoint x="1560" y="290" as="targetPoint" />
          </mxGeometry>
        </mxCell>
        <mxCell id="reV63xKxs6cJYXb1UqvZ-70" value="inflateWidget(child)" style="whiteSpace=wrap;html=1;rounded=1;dashed=1;dashPattern=1 1;fontFamily=Comic Sans MS;strokeColor=#9673a6;strokeWidth=2;fillColor=#e1d5e7;sketch=1;fillWeight=4;hachureGap=8;hachureAngle=45;" vertex="1" parent="1">
          <mxGeometry x="1320" y="260" width="130" height="60" as="geometry" />
        </mxCell>
        <mxCell id="reV63xKxs6cJYXb1UqvZ-72" value="" style="curved=1;endArrow=classic;html=1;shadow=0;strokeColor=#545B64;fontFamily=Comic Sans MS;exitX=0.25;exitY=1;exitDx=0;exitDy=0;entryX=0;entryY=1;entryDx=0;entryDy=0;dashed=1;" edge="1" parent="1" source="reV63xKxs6cJYXb1UqvZ-70" target="reV63xKxs6cJYXb1UqvZ-70">
          <mxGeometry width="50" height="50" relative="1" as="geometry">
            <mxPoint x="1410" y="370" as="sourcePoint" />
            <mxPoint x="1460" y="320" as="targetPoint" />
            <Array as="points">
              <mxPoint x="1360" y="360" />
              <mxPoint x="1270" y="350" />
            </Array>
          </mxGeometry>
        </mxCell>
        <mxCell id="reV63xKxs6cJYXb1UqvZ-73" value="traverse all child" style="edgeLabel;html=1;align=center;verticalAlign=middle;resizable=0;points=[];fontFamily=Comic Sans MS;" vertex="1" connectable="0" parent="reV63xKxs6cJYXb1UqvZ-72">
          <mxGeometry x="-0.256" y="3" relative="1" as="geometry">
            <mxPoint x="-19.55" as="offset" />
          </mxGeometry>
        </mxCell>
        <mxCell id="reV63xKxs6cJYXb1UqvZ-80" value="rebuild" style="whiteSpace=wrap;html=1;rounded=1;dashed=1;dashPattern=1 1;fontFamily=Comic Sans MS;strokeColor=#314354;strokeWidth=2;fillColor=#647687;sketch=1;fillWeight=4;hachureGap=8;hachureAngle=45;fontColor=#ffffff;" vertex="1" parent="1">
          <mxGeometry x="560" y="400" width="120" height="60" as="geometry" />
        </mxCell>
      </root>
    </mxGraphModel>
  </diagram>
</mxfile>
